<svg version="1.1" xmlns="http://www.w3.org/2000/svg" xmlns:xlink="http://www.w3.org/1999/xlink" width="708" height="137"><defs/><g><g transform="translate(-214,-102) scale(1,1)"><rect fill="#C0C0C0" stroke="none" x="231" y="119" width="120" height="117" opacity="0.2"/></g><g transform="translate(-214,-102) scale(1,1)"><rect fill="#ffffff" stroke="none" x="224" y="112" width="120" height="117"/></g><g transform="translate(-214,-102) scale(1,1)"><path fill="none" stroke="#000000" d="M 224 112 L 344 112 L 344 229 L 224 229 L 224 112 Z Z" stroke-miterlimit="10"/></g><g transform="translate(-214,-102) scale(1,1)"><path fill="none" stroke="#000000" d="M 224 137 L 344 137" stroke-miterlimit="10"/></g><g transform="translate(-214,-102) scale(1,1)"><path fill="none" stroke="#000000" d="M 224 220 L 344 220" stroke-miterlimit="10"/></g><g transform="translate(-214,-102) scale(1,1)"><g><path fill="none" stroke="none"/><text fill="#000000" stroke="none" font-family="Arial" font-size="13px" font-style="normal" font-weight="bold" text-decoration="none" x="258" y="131.5">新闻中心</text></g></g><g transform="translate(-214,-102) scale(1,1)"><g><path fill="none" stroke="none"/><text fill="#000000" stroke="none" font-family="Arial" font-size="13px" font-style="normal" font-weight="normal" text-decoration="none" x="229" y="154.5">+id</text></g></g><g transform="translate(-214,-102) scale(1,1)"><g><path fill="none" stroke="none"/><text fill="#000000" stroke="none" font-family="Arial" font-size="13px" font-style="normal" font-weight="normal" text-decoration="none" x="229" y="169.5">+title</text></g></g><g transform="translate(-214,-102) scale(1,1)"><g><path fill="none" stroke="none"/><text fill="#000000" stroke="none" font-family="Arial" font-size="13px" font-style="normal" font-weight="normal" text-decoration="none" x="229" y="184.5">+content</text></g></g><g transform="translate(-214,-102) scale(1,1)"><g><path fill="none" stroke="none"/><text fill="#000000" stroke="none" font-family="Arial" font-size="13px" font-style="normal" font-weight="normal" text-decoration="none" x="229" y="199.5">+created_at</text></g></g><g transform="translate(-214,-102) scale(1,1)"><g><path fill="none" stroke="none"/><text fill="#000000" stroke="none" font-family="Arial" font-size="13px" font-style="normal" font-weight="normal" text-decoration="none" x="229" y="214.5">+upadted_at</text></g></g><g transform="translate(-214,-102) scale(1,1)"><rect fill="#C0C0C0" stroke="none" x="375" y="119" width="104" height="117" opacity="0.2"/></g><g transform="translate(-214,-102) scale(1,1)"><rect fill="#ffffff" stroke="none" x="368" y="112" width="104" height="117"/></g><g transform="translate(-214,-102) scale(1,1)"><path fill="none" stroke="#000000" d="M 368 112 L 472 112 L 472 229 L 368 229 L 368 112 Z Z" stroke-miterlimit="10"/></g><g transform="translate(-214,-102) scale(1,1)"><path fill="none" stroke="#000000" d="M 368 137 L 472 137" stroke-miterlimit="10"/></g><g transform="translate(-214,-102) scale(1,1)"><path fill="none" stroke="#000000" d="M 368 220 L 472 220" stroke-miterlimit="10"/></g><g transform="translate(-214,-102) scale(1,1)"><g><path fill="none" stroke="none"/><text fill="#000000" stroke="none" font-family="Arial" font-size="13px" font-style="normal" font-weight="bold" text-decoration="none" x="394" y="131.5">客户案例</text></g></g><g transform="translate(-214,-102) scale(1,1)"><g><path fill="none" stroke="none"/><text fill="#000000" stroke="none" font-family="Arial" font-size="13px" font-style="normal" font-weight="normal" text-decoration="none" x="373" y="154.5">+id</text></g></g><g transform="translate(-214,-102) scale(1,1)"><g><path fill="none" stroke="none"/><text fill="#000000" stroke="none" font-family="Arial" font-size="13px" font-style="normal" font-weight="normal" text-decoration="none" x="373" y="169.5">+title</text></g></g><g transform="translate(-214,-102) scale(1,1)"><g><path fill="none" stroke="none"/><text fill="#000000" stroke="none" font-family="Arial" font-size="13px" font-style="normal" font-weight="normal" text-decoration="none" x="373" y="184.5">+created_at</text></g></g><g transform="translate(-214,-102) scale(1,1)"><g><path fill="none" stroke="none"/><text fill="#000000" stroke="none" font-family="Arial" font-size="13px" font-style="normal" font-weight="normal" text-decoration="none" x="373" y="199.5">+upadted_at</text></g></g><g transform="translate(-214,-102) scale(1,1)"><g><path fill="none" stroke="none"/><text fill="#000000" stroke="none" font-family="Arial" font-size="13px" font-style="normal" font-weight="normal" text-decoration="none" x="373" y="214.5">+description</text></g></g><g transform="translate(-214,-102) scale(1,1)"><rect fill="#C0C0C0" stroke="none" x="503" y="119" width="104" height="88" opacity="0.2"/></g><g transform="translate(-214,-102) scale(1,1)"><rect fill="#ffffff" stroke="none" x="496" y="112" width="104" height="88"/></g><g transform="translate(-214,-102) scale(1,1)"><path fill="none" stroke="#000000" d="M 496 112 L 600 112 L 600 200 L 496 200 L 496 112 Z Z" stroke-miterlimit="10"/></g><g transform="translate(-214,-102) scale(1,1)"><path fill="none" stroke="#000000" d="M 496 137 L 600 137" stroke-miterlimit="10"/></g><g transform="translate(-214,-102) scale(1,1)"><path fill="none" stroke="#000000" d="M 496 190 L 600 190" stroke-miterlimit="10"/></g><g transform="translate(-214,-102) scale(1,1)"><g><path fill="none" stroke="none"/><text fill="#000000" stroke="none" font-family="Arial" font-size="13px" font-style="normal" font-weight="bold" text-decoration="none" x="522" y="131.5">友情链接</text></g></g><g transform="translate(-214,-102) scale(1,1)"><g><path fill="none" stroke="none"/><text fill="#000000" stroke="none" font-family="Arial" font-size="13px" font-style="normal" font-weight="normal" text-decoration="none" x="501" y="154.5">+id</text></g></g><g transform="translate(-214,-102) scale(1,1)"><g><path fill="none" stroke="none"/><text fill="#000000" stroke="none" font-family="Arial" font-size="13px" font-style="normal" font-weight="normal" text-decoration="none" x="501" y="169.5">+type</text></g></g><g transform="translate(-214,-102) scale(1,1)"><g><path fill="none" stroke="none"/><text fill="#000000" stroke="none" font-family="Arial" font-size="13px" font-style="normal" font-weight="normal" text-decoration="none" x="501" y="184.5">+url</text></g></g><g transform="translate(-214,-102) scale(1,1)"><rect fill="#C0C0C0" stroke="none" x="631" y="119" width="128" height="102" opacity="0.2"/></g><g transform="translate(-214,-102) scale(1,1)"><rect fill="#ffffff" stroke="none" x="624" y="112" width="128" height="102"/></g><g transform="translate(-214,-102) scale(1,1)"><path fill="none" stroke="#000000" d="M 624 112 L 752 112 L 752 214 L 624 214 L 624 112 Z Z" stroke-miterlimit="10"/></g><g transform="translate(-214,-102) scale(1,1)"><path fill="none" stroke="#000000" d="M 624 137 L 752 137" stroke-miterlimit="10"/></g><g transform="translate(-214,-102) scale(1,1)"><path fill="none" stroke="#000000" d="M 624 205 L 752 205" stroke-miterlimit="10"/></g><g transform="translate(-214,-102) scale(1,1)"><g><path fill="none" stroke="none"/><text fill="#000000" stroke="none" font-family="Arial" font-size="13px" font-style="normal" font-weight="bold" text-decoration="none" x="648" y="131.5">BANNER广告</text></g></g><g transform="translate(-214,-102) scale(1,1)"><g><path fill="none" stroke="none"/><text fill="#000000" stroke="none" font-family="Arial" font-size="13px" font-style="normal" font-weight="normal" text-decoration="none" x="629" y="154.5">+id</text></g></g><g transform="translate(-214,-102) scale(1,1)"><g><path fill="none" stroke="none"/><text fill="#000000" stroke="none" font-family="Arial" font-size="13px" font-style="normal" font-weight="normal" text-decoration="none" x="629" y="169.5">+title</text></g></g><g transform="translate(-214,-102) scale(1,1)"><g><path fill="none" stroke="none"/><text fill="#000000" stroke="none" font-family="Arial" font-size="13px" font-style="normal" font-weight="normal" text-decoration="none" x="629" y="184.5">+filepath</text></g></g><g transform="translate(-214,-102) scale(1,1)"><g><path fill="none" stroke="none"/><text fill="#000000" stroke="none" font-family="Arial" font-size="13px" font-style="normal" font-weight="normal" text-decoration="none" x="629" y="199.5">+priority</text></g></g><g transform="translate(-214,-102) scale(1,1)"><rect fill="#C0C0C0" stroke="none" x="791" y="119" width="128" height="104" opacity="0.2"/></g><g transform="translate(-214,-102) scale(1,1)"><rect fill="#ffffff" stroke="none" x="784" y="112" width="128" height="104"/></g><g transform="translate(-214,-102) scale(1,1)"><path fill="none" stroke="#000000" d="M 784 112 L 912 112 L 912 216 L 784 216 L 784 112 Z Z" stroke-miterlimit="10"/></g><g transform="translate(-214,-102) scale(1,1)"><path fill="none" stroke="#000000" d="M 784 137 L 912 137" stroke-miterlimit="10"/></g><g transform="translate(-214,-102) scale(1,1)"><path fill="none" stroke="#000000" d="M 784 205 L 912 205" stroke-miterlimit="10"/></g><g transform="translate(-214,-102) scale(1,1)"><g><path fill="none" stroke="none"/><text fill="#000000" stroke="none" font-family="Arial" font-size="13px" font-style="normal" font-weight="bold" text-decoration="none" x="822" y="131.5">配置管理</text></g></g><g transform="translate(-214,-102) scale(1,1)"><g><path fill="none" stroke="none"/><text fill="#000000" stroke="none" font-family="Arial" font-size="13px" font-style="normal" font-weight="normal" text-decoration="none" x="789" y="154.5">+id</text></g></g><g transform="translate(-214,-102) scale(1,1)"><g><path fill="none" stroke="none"/><text fill="#000000" stroke="none" font-family="Arial" font-size="13px" font-style="normal" font-weight="normal" text-decoration="none" x="789" y="169.5">+code</text></g></g><g transform="translate(-214,-102) scale(1,1)"><g><path fill="none" stroke="none"/><text fill="#000000" stroke="none" font-family="Arial" font-size="13px" font-style="normal" font-weight="normal" text-decoration="none" x="789" y="184.5">+name</text></g></g><g transform="translate(-214,-102) scale(1,1)"><g><path fill="none" stroke="none"/><text fill="#000000" stroke="none" font-family="Arial" font-size="13px" font-style="normal" font-weight="normal" text-decoration="none" x="789" y="199.5">+value</text></g></g></g></svg>